HIERARCHY
ROOT hip
{
  OFFSET 0.0 0.0 0.0
  CHANNELS 6 Xposition Yposition Zposition Zrotation Yrotation Xrotation
  JOINT torso
  {
    OFFSET 0.0 0.0 0.0
    CHANNELS 3 Zrotation Xrotation Yrotation
    JOINT neck
    {
      OFFSET -8.059630999999968 325.56260699999996 64.6221310000002
      CHANNELS 3 Zrotation Xrotation Yrotation
      JOINT head
      {
        OFFSET 34.685424000000125 375.1179809999999 232.79357900000002
        CHANNELS 3 Zrotation Xrotation Yrotation
        End Site
        {
          OFFSET 0.0 0.0 0.0
        }
      }
    }
    JOINT left_collar
    {
      OFFSET -8.059630999999968 325.56260699999996 64.6221310000002
      CHANNELS 3 Zrotation Xrotation Yrotation
      JOINT left_upper_arm
      {
        OFFSET -124.124665 -15.370300999999927 25.582641999999964
        CHANNELS 3 Zrotation Xrotation Yrotation
        JOINT left_forearm
        {
          OFFSET -268.19913399999996 105.06054699999993 114.74548300000004
          CHANNELS 3 Zrotation Xrotation Yrotation
          JOINT left_hand
          {
            OFFSET -235.82003099999991 -10.198180999999977 -38.67455999999993
            CHANNELS 3 Zrotation Xrotation Yrotation
            End Site
            {
              OFFSET 0.0 0.0 0.0
            }
          }
        }
      }
    }
    JOINT right_collar
    {
      OFFSET -8.059630999999968 325.56260699999996 64.6221310000002
      CHANNELS 3 Zrotation Xrotation Yrotation
      JOINT right_upper_arm
      {
        OFFSET 162.73931899999997 -2.8598030000000563 26.244994999999903
        CHANNELS 3 Zrotation Xrotation Yrotation
        JOINT right_forearm
        {
          OFFSET 284.6506340000001 103.07031299999994 145.84521499999994
          CHANNELS 3 Zrotation Xrotation Yrotation
          JOINT right_hand
          {
            OFFSET 226.332337 -12.198241999999937 -49.27258299999994
            CHANNELS 3 Zrotation Xrotation Yrotation
            End Site
            {
              OFFSET 0.0 0.0 0.0
            }
          }
        }
      }
    }
  }
}
MOTION
Frames: 18
Frame Time: 0.01
217.61797325329633 205.84715214358508 1569.758373280487 5.672347687117536 0.555746981705099 -3.0598026517139 0.8817652810978819 2.3723896632357997 -0.09845424470620655 -2.113544895225551 -4.675696278172183 1.7882598099023574 0.0 0.0 0.0 2.766803240296338 -0.5472922410769062 7.5811685845341845 49.55320681380118 16.331233033975366 24.1235924805166 34.61555258310018 -3.509216504802158 -6.642401661773767 0.0 0.0 0.0 0.8096630675522881 -0.061697437334692413 6.602038782447548 8.571481825094994 -17.03268321380375 23.589971068072245 46.74097924762424 -1.9373804852617598 33.12071950610573 0.0 0.0 0.0
217.94468556495266 205.82971501737606 1569.8285257027046 5.663540923843333 0.5833636456849067 -3.173457302858245 0.8842790355179235 2.3516055310386195 -0.09957769309310761 -2.1295231704035364 -4.6758211474887235 1.7986201340032704 0.0 0.0 0.0 2.7636034382215064 -0.5496750572598351 7.594463415389875 49.55097462382057 16.33238901274434 24.109535770886687 34.587162865278216 -3.5101262963714004 -6.630626810212932 0.0 0.0 0.0 0.8019824480067288 -0.06008408332880006 6.5941411870349524 8.572464647425544 -17.03901660143929 23.59899840870466 46.748630018095014 -1.9598263742735702 33.17887424924582 0.0 0.0 0.0
218.2669014201002 205.80741983717135 1569.9090504795022 5.655189984386245 0.6110674465920977 -3.2879149158582353 0.8859118504851641 2.329209521813159 -0.10059666497026473 -2.145298674366968 -4.676056249401419 1.808860372597343 0.0 0.0 0.0 2.7607987396447107 -0.5522993313923206 7.609790044860199 49.551121294701474 16.333992327315627 24.094568391994876 34.56084747239747 -3.5100073033816486 -6.622358379098446 0.0 0.0 0.0 0.7952657859368352 -0.058671253831986195 6.587503039907841 8.576332903456557 -17.046919227266166 23.60641798528781 46.75471072039278 -1.9821363274393917 33.237002751357856 0.0 0.0 0.0
218.58366373631847 205.7801931136309 1569.9991584676363 5.647472254292869 0.6387250390615448 -3.4028171525806523 0.8864265888242321 2.3054383505357743 -0.10146054266543758 -2.1606771178320563 -4.6764054866264155 1.8188550927476543 0.0 0.0 0.0 2.7583797486685553 -0.5550994778630749 7.6266905184949305 49.55366399499798 16.33601462171869 24.078991448843347 34.53687164181178 -3.50900311125065 -6.617294421625463 0.0 0.0 0.0 0.7895338799515628 -0.05746698355636007 6.581765832715288 8.582426153286246 -17.055957361042903 23.61247341209459 46.75907503281234 -2.0044415354856726 33.29549653328001 0.0 0.0 0.0
218.89414195758238 205.74800838068154 1570.0980428718296 5.6405496467399265 0.6661666567890471 -3.5178201147140347 0.8856259668071617 2.2805683700529875 -0.10212430175674467 -2.175492783899694 -4.676861646044578 1.828496248920636 0.0 0.0 0.0 2.756339360713749 -0.5580112611442014 7.644717747286588 49.558576961241855 16.33842175051918 24.063101333198716 34.515488391081625 -3.5072563103412238 -6.615129914811591 0.0 0.0 0.0 0.7847790244727071 -0.05647301558055182 6.576582609008029 8.589873023344904 -17.0655926109124 23.617542986580638 46.761719307434056 -2.0268657685127933 33.35469441812417 0.0 0.0 0.0
219.1976531320043 205.71087975794663 1570.204909254626 5.634558572902422 0.6931893707054385 -3.6326090621337728 0.8833621335628971 2.2549100256600028 -0.10255045942646937 -2.189613948158054 -4.677407056645529 1.8376967575002425 0.0 0.0 0.0 2.754675560519442 -0.5609739224175181 7.6634528047958765 49.56579639536285 16.34117524694725 24.04718185978447 34.49692843445857 -3.5049060279190316 -6.615560269479546 0.0 0.0 0.0 0.7809690174796066 -0.05568548874278014 6.571633725017697 8.597571977446492 -17.075169795503555 23.62214747708501 46.762793861443754 -2.0495240343671277 33.414875356762224 0.0 0.0 0.0
219.49367432848794 205.66885451975645 1570.3190026908849 5.629601875257951 0.7195618721848855 -3.7469105159390312 0.8795438487410214 2.2288009229804824 -0.1027106681472695 -2.2029469225444918 -4.678014769221639 1.8463932335526039 0.0 0.0 0.0 2.7533939866772017 -0.5639320210956816 7.68252004022667 49.57522617482925 16.34423388107181 24.031496785104018 34.48139042042998 -3.5020857705318624 -6.618284161721876 0.0 0.0 0.0 0.7780514689163973 -0.05509571812159291 6.566639871954289 8.604175293065218 -17.083905137088372 23.626953823979594 46.76260965726288 -2.072522721293019 33.47625612395994 0.0 0.0 0.0
219.78184622588697 205.62200488829112 1570.4396310307923 5.625743200279818 0.7450307233882534 -3.860501333459694 0.874140843823141 2.2025976124168136 -0.10258686902340536 -2.2154385362282896 -4.678650216647356 1.854547764712941 0.0 0.0 0.0 2.7525101263408316 -0.5668369358534049 7.701599493798155 49.58674408704753 16.347555234152818 24.016283064429288 34.469032041674886 -3.4989215800345073 -6.623005856246161 0.0 0.0 0.0 0.7759581593894878 -0.05469102080259213 6.5613721695951 8.608077280075976 -17.090874928206908 23.632773637284714 46.761639795830845 -2.0959614627638796 33.53899466699979 0.0 0.0 0.0
220.06196807120276 205.57041933044235 1570.5661833512056 5.623004066537404 0.7693279777523048 -3.9732145863747315 0.8671851313674345 2.1766662530314593 -0.10217194568838994 -2.2270769386988736 -4.679273320257992 1.8621486440770572 0.0 0.0 0.0 2.7520510412170585 -0.5696479982988588 7.720436335121249 49.60020830895663 16.351097216795715 24.001745180000253 34.45996252951414 -3.495530500690661 -6.629437190190939 0.0 0.0 0.0 0.7746092493007047 -0.05445554560437698 6.555659394218669 8.607407735618317 -17.095004824277343 23.64055547869158 46.760515326724565 -2.1199369084809137 33.60319975553812 0.0 0.0 0.0
220.33398451170697 205.5141936832984 1570.6981428232705 5.621363647270485 0.7921800163072594 -4.0849422622547955 0.8587692309862676 2.1513723875634234 -0.10146985197121366 -2.2378906767739775 -4.679841007837265 1.8692100269112841 0.0 0.0 0.0 2.752056558347418 -0.5723332547802957 7.738847231123414 49.615463871436354 16.35481946245817 23.988050838580715 34.45423698193987 -3.4920193536429545 -6.637299363469564 0.0 0.0 0.0 0.7739171874304831 -0.054371072915593135 6.5493925337993 8.600031526817235 -17.095059944284035 23.651370139914643 46.76001499557599 -2.1445485151829398 33.66894739237009 0.0 0.0 0.0
220.5979650683393 205.45342243241464 1570.8350934252014 5.620761055503099 0.8133173550552545 -4.195634934563421 0.8490414951684702 2.1270701453088816 -0.10049522194189878 -2.2479460566165073 -4.68031009506391 1.8757705130281013 0.0 0.0 0.0 2.752579879495598 -0.5748698670225709 7.756723673723316 49.632348883661166 16.35868453548564 23.975328290639975 34.45185288608413 -3.4884838160948677 -6.646324645321375 0.0 0.0 0.0 0.7737902125881002 -0.05441775866929223 6.542526898980285 8.583555040844983 -17.089635995751877 23.666388408169457 46.76104867947349 -2.1699063960193894 33.736304229217936 0.0 0.0 0.0
220.85407722653736 205.38819040207906 1570.976720204253 5.621099716938541 0.8324850558763188 -4.305298622237199 0.8381989172633576 2.1040912858465277 -0.0992725052669314 -2.257342854070449 -4.680640451524761 1.8818906874721433 0.0 0.0 0.0 2.753687572770944 -0.577244172137543 7.774032373315251 49.650700350791894 16.362658905664702 23.963665463438737 34.45274908632878 -3.485007803533708 -6.656258064589704 0.0 0.0 0.0 0.7741353827658 -0.05457480457292495 6.535081998064966 8.555340050852521 -17.077151668583127 23.68685109816301 46.76463438028199 -2.196141196655081 33.8053580120915 0.0 0.0 0.0
221.10255426939543 205.3185650033901 1571.1228031282167 5.622253270099758 0.8494532420329066 -4.41398910544559 0.826477955611289 2.0827345839318956 -0.09783469867183928 -2.266208480778468 -4.680798328031191 1.8876496764615143 0.0 0.0 0.0 2.755458913532785 -0.5794514286816679 7.790812867888773 49.67035949566568 16.366713658869006 23.953111026849818 34.456807327372665 -3.4816631542557803 -6.66685910677551 0.0 0.0 0.0 0.7748610996980969 -0.054821043983650224 6.527139332724077 8.512525329666762 -17.055842570751 23.714031409098112 46.77186873633348 -2.2234159033821252 33.87625486603778 0.0 0.0 0.0
221.3436590793436 205.2445890658697 1571.27320491733 5.624072369029127 0.8640271163124823 -4.521803985081483 0.8141439884129618 2.063256107111157 -0.09622176183832391 -2.2746907488258863 -4.6807596733481205 1.893140793724236 0.0 0.0 0.0 2.757984542710843 -0.5814952771144116 7.807172508958273 49.69117657198093 16.37082493213717 23.943677431542675 34.4638563788995 -3.4785096185373106 -6.677903392097226 0.0 0.0 0.0 0.7758791154405339 -0.05513543745287626 6.518838200870156 8.45205611277019 -17.02375701778404 23.749189927893713 46.78389106516204 -2.2519394316151327 33.94924301653229 0.0 0.0 0.0
221.57764521756658 205.1662741887322 1571.4278535651217 5.626391785695204 0.8760558389836041 -4.62887277364759 0.8014800213861581 2.045860929535951 -0.09447881286703906 -2.2829494058919617 -4.680513226358316 1.8984663673295012 0.0 0.0 0.0 2.7613644160248674 -0.5833869388442415 7.823278961839557 49.713015203530766 16.374974076431425 23.9353458804981 34.473678635743624 -3.475595161706231 -6.689184254592055 0.0 0.0 0.0 0.7771060095654121 -0.05549747328548248 6.510369518859124 8.370721273352462 -16.978754042230538 23.793522843628157 46.80184096355442 -2.281981785853849 34.02472232223601 0.0 0.0 0.0
221.80471667817983 205.08359450431408 1571.5867205200163 5.629037296877139 0.8854396621338799 -4.735345299899126 0.7887752219173461 2.030696748242974 -0.09265419713024883 -2.291146642773598 -4.680063143386398 1.9037318540489612 0.0 0.0 0.0 2.7657050355268327 -0.5851441695058538 7.839350317826779 49.73575628172554 16.379147558551924 23.928073115052 34.48601899197252 -3.4729565993909457 -6.700514089793844 0.0 0.0 0.0 0.7784641200040887 -0.05588746811345797 6.5019676231334795 8.26519782176416 -16.918504055305103 23.848104165117302 46.826809470314444 -2.31389051587248 34.103298748469406 0.0 0.0 0.0
222.02498780887413 204.9964807497208 1571.74979570702 5.63183195807334 0.8921348306973975 -4.841378724054753 0.7763137764646906 2.017849733531016 -0.09079751772158119 -2.2994368126143856 -4.679430916855534 1.9090393723266914 0.0 0.0 0.0 2.7711159892218036 -0.5867899746112408 7.8556429007574 49.75930140886832 16.383336616701065 23.92179981053866 34.50059571057283 -3.470620589452234 -6.711725301467926 0.0 0.0 0.0 0.7798819125336679 -0.05628676336310236 6.493900012631319 8.132102071873993 -16.84049266397601 23.913822952911833 46.8597837444926 -2.348108110700751 34.185842639465385 0.0 0.0 0.0
222.23844498169564 204.90481459253482 1571.917060717713 5.634601480848894 0.8961559188628784 -4.9471235183851965 0.7643644873773622 2.007342787222245 -0.08895770870001869 -2.307955650585682 -4.678656365168826 1.9144808193137755 0.0 0.0 0.0 2.7777058721053742 -0.5883510958274614 7.872436902608789 49.78357581434448 16.3875366862148 23.916460281326057 34.517112945360125 -3.46860500441786 -6.722670664848794 0.0 0.0 0.0 0.7812937941574575 -0.05667781763332063 6.486455069942651 7.968046524735664 -16.742028219210884 23.991316803422112 46.901585132674526 -2.385189863864542 34.27354935392737 0.0 0.0 0.0
